<svg xmlns="http://www.w3.org/2000/svg" viewBox="0 0 287.58 287.58"><defs><style>.cls-1{fill:#fff;}.cls-2,.cls-3{fill:none;}.cls-3{stroke:#fff;stroke-miterlimit:10;stroke-width:24.24px;}</style></defs><title>rRecurso 5</title><g id="Capa_2" data-name="Capa 2"><g id="Capa_1-2" data-name="Capa 1"><path class="cls-1" d="M239.92,168.61a55.88,55.88,0,0,0-24.68-39.26,52.62,52.62,0,1,0-85-62,52.51,52.51,0,0,1,18.21,33.14,25.47,25.47,0,1,1,36.08,19.59,25.2,25.2,0,0,1-15.18,2.06,25.47,25.47,0,0,1-20.9-21.65,52.37,52.37,0,0,1-3.77,27.78l-3.37,10.23c.3.27.61.5.92.73-.66.76-1.31,1.54-1.93,2.33l-11.88,36.08a58.86,58.86,0,0,0,.49,6,56,56,0,0,0,111-15.07ZM188.3,204.74a28.86,28.86,0,0,1-15.47-55,29.29,29.29,0,0,1,7.7-2.17,29.74,29.74,0,0,1,8,0,28.86,28.86,0,0,1-.23,57.17Z"/><rect class="cls-2" x="126.54" y="132.09" width="22.79" height="16.37" transform="translate(-17.62 19.84) rotate(-7.73)"/><path class="cls-1" d="M148.45,100.52a52.62,52.62,0,1,0-45.06,59.21c1.17-.15,2.34-.35,3.5-.59L79.13,246l28-3.81,21.26-64.55,11.88-36.08,1-3.06,3.37-10.23A52.37,52.37,0,0,0,148.45,100.52Zm-41.29,30.1A25.43,25.43,0,0,1,92,132.68a25.46,25.46,0,1,1,15.18-2.06Z"/><circle class="cls-3" cx="143.79" cy="143.79" r="131.67"/></g></g></svg>